<svg width="24" height="24" viewBox="0 0 24 24" fill="none" xmlns="http://www.w3.org/2000/svg">
<g clip-path="url(#clip0_405_2740)">
<path d="M17.3637 11.6276C17.339 9.09418 19.3934 7.8791 19.4852 7.81772C18.3306 6.09936 16.5318 5.86358 15.8916 5.83675C14.362 5.67862 12.9055 6.75386 12.1295 6.75386C11.3552 6.75386 10.1562 5.85992 8.88782 5.88269C7.21924 5.90789 5.68125 6.87053 4.82259 8.39091C3.08971 11.4508 4.37929 15.9855 6.06784 18.4689C6.89335 19.6828 7.8778 21.0487 9.16938 20.9987C10.4142 20.9487 10.8839 20.1791 12.3887 20.1791C13.8936 20.1791 14.3161 20.9987 15.6328 20.9731C16.9715 20.9483 17.8202 19.736 18.6389 18.5173C19.5866 17.1071 19.9768 15.7416 20 15.6725C19.9708 15.6586 17.3905 14.6525 17.3637 11.6276Z" fill="black"/>
<path d="M14.8896 4.1932C15.5746 3.34683 16.0386 2.17077 15.9124 1C14.924 1.04065 13.7275 1.66872 13.0178 2.51428C12.382 3.26471 11.826 4.45947 11.975 5.6091C13.0777 5.6961 14.2023 5.03795 14.8896 4.1932Z" fill="black"/>
</g>
<defs>
<clipPath id="clip0_405_2740">
<rect width="24" height="24" fill="white"/>
</clipPath>
</defs>
</svg>
