<svg width="24" height="24" viewBox="0 0 24 24" fill="none" xmlns="http://www.w3.org/2000/svg">
<path d="M12 20.5H17.4778C18.5357 20.5 19.0646 20.5 19.4686 20.3022C19.8241 20.1282 20.113 19.8505 20.2941 19.509C20.5 19.1208 20.5 18.6125 20.5 17.5961V11.0305C20.5 10.5093 20.5 10.2487 20.4301 10.0087C20.3682 9.79606 20.2664 9.5961 20.1298 9.41861C19.9755 9.21824 19.7614 9.05824 19.3332 8.73824L12.9277 3.95116C12.5959 3.70319 12.43 3.5792 12.2468 3.53154C12.0852 3.48949 11.9148 3.48949 11.7532 3.53154C11.57 3.5792 11.4041 3.70319 11.0723 3.95116L4.66676 8.73824C4.23858 9.05824 4.02448 9.21824 3.87025 9.41861C3.73362 9.5961 3.63185 9.79606 3.56991 10.0087C3.5 10.2487 3.5 10.5093 3.5 11.0305V17.5961C3.5 18.6125 3.5 19.1208 3.70588 19.509C3.88697 19.8505 4.17593 20.1282 4.53135 20.3022C4.93541 20.5 5.46435 20.5 6.52222 20.5H12ZM12 20.5V14" stroke="black" stroke-width="1.5" stroke-linecap="round" stroke-linejoin="round"/>
</svg>
