<svg width="24" height="24" viewBox="0 0 24 24" fill="none" xmlns="http://www.w3.org/2000/svg">
<g clip-path="url(#clip0_405_2609)">
<path fill-rule="evenodd" clip-rule="evenodd" d="M22 12C22 17.5228 17.5228 22 12 22C6.47715 22 2 17.5228 2 12C2 6.47715 6.47715 2 12 2C17.5228 2 22 6.47715 22 12ZM12 7.75C11.5858 7.75 11.25 8.08579 11.25 8.5C11.25 8.91421 11.5858 9.25 12 9.25H12.009C12.4232 9.25 12.759 8.91421 12.759 8.5C12.759 8.08579 12.4232 7.75 12.009 7.75H12ZM12.759 11.5C12.759 11.0858 12.4232 10.75 12.009 10.75C11.5948 10.75 11.259 11.0858 11.259 11.5V15.9C11.259 16.3142 11.5948 16.65 12.009 16.65C12.4232 16.65 12.759 16.3142 12.759 15.9V11.5Z" fill="black"/>
</g>
<defs>
<clipPath id="clip0_405_2609">
<rect width="24" height="24" fill="white"/>
</clipPath>
</defs>
</svg>
