<svg width="24" height="24" viewBox="0 0 24 24" fill="none" xmlns="http://www.w3.org/2000/svg">
<path d="M10.2904 12.8557C10.6575 13.347 11.1258 13.7535 11.6637 14.0476C12.2015 14.3418 12.7963 14.5167 13.4076 14.5605C14.0189 14.6043 14.6325 14.516 15.2067 14.3016C15.781 14.0872 16.3024 13.7516 16.7357 13.3178L19.3002 10.7507C20.0788 9.94378 20.5096 8.86304 20.4998 7.74125C20.4901 6.61946 20.0406 5.54638 19.2481 4.75312C18.4557 3.95987 17.3837 3.50991 16.263 3.50016C15.1424 3.49041 14.0627 3.92166 13.2566 4.701L11.7863 6.16423M13.7096 11.1443C13.3425 10.653 12.8742 10.2465 12.3363 9.9524C11.7985 9.65825 11.2037 9.48333 10.5924 9.4395C9.98108 9.39568 9.36749 9.48397 8.79326 9.69839C8.21902 9.91282 7.69757 10.2484 7.26427 10.6822L4.6998 13.2493C3.92123 14.0562 3.49042 15.137 3.50016 16.2588C3.5099 17.3805 3.9594 18.4536 4.75186 19.2469C5.54432 20.0401 6.61632 20.4901 7.73698 20.4998C8.85765 20.5096 9.9373 20.0783 10.7434 19.299L12.2052 17.8358" stroke="black" stroke-width="1.5" stroke-linecap="round" stroke-linejoin="round"/>
</svg>
