<svg width="40" height="40" viewBox="0 0 40 40" fill="none" xmlns="http://www.w3.org/2000/svg">
<path d="M12.5 20H12.5167M20 20H20.0167M27.5 20H27.5167M20 35C28.2843 35 35 28.2843 35 20C35 11.7157 28.2843 5 20 5C11.7157 5 5 11.7157 5 20C5 21.9952 5.38956 23.8995 6.09677 25.6408C6.23212 25.9741 6.2998 26.1408 6.32999 26.2755C6.35953 26.4072 6.37033 26.5047 6.37034 26.6398C6.37036 26.7778 6.3453 26.9282 6.29518 27.2289L5.30688 33.1587C5.20338 33.7797 5.15164 34.0902 5.24793 34.3147C5.33222 34.5112 5.4888 34.6678 5.68531 34.7521C5.90982 34.8484 6.2203 34.7966 6.84127 34.6931L12.7711 33.7048C13.0718 33.6547 13.2222 33.6296 13.3602 33.6297C13.4953 33.6297 13.5928 33.6405 13.7245 33.67C13.8592 33.7002 14.0259 33.7679 14.3592 33.9032C16.1005 34.6104 18.0048 35 20 35ZM13.3333 20C13.3333 20.4602 12.9602 20.8333 12.5 20.8333C12.0398 20.8333 11.6667 20.4602 11.6667 20C11.6667 19.5398 12.0398 19.1667 12.5 19.1667C12.9602 19.1667 13.3333 19.5398 13.3333 20ZM20.8333 20C20.8333 20.4602 20.4602 20.8333 20 20.8333C19.5398 20.8333 19.1667 20.4602 19.1667 20C19.1667 19.5398 19.5398 19.1667 20 19.1667C20.4602 19.1667 20.8333 19.5398 20.8333 20ZM28.3333 20C28.3333 20.4602 27.9602 20.8333 27.5 20.8333C27.0398 20.8333 26.6667 20.4602 26.6667 20C26.6667 19.5398 27.0398 19.1667 27.5 19.1667C27.9602 19.1667 28.3333 19.5398 28.3333 20Z" stroke="white" stroke-width="2" stroke-linecap="round" stroke-linejoin="round"/>
</svg>
