<svg width="24" height="24" viewBox="0 0 24 24" fill="none" xmlns="http://www.w3.org/2000/svg">
<path d="M7 4.98963C7 4.01847 7 3.53289 7.20249 3.26522C7.37889 3.03203 7.64852 2.88773 7.9404 2.8703C8.27544 2.8503 8.67946 3.11965 9.48752 3.65835L20.0031 10.6687C20.6708 11.1139 21.0046 11.3364 21.1209 11.6169C21.2227 11.8622 21.2227 12.1378 21.1209 12.3831C21.0046 12.6636 20.6708 12.8862 20.0031 13.3313L9.48752 20.3417C8.67946 20.8804 8.27544 21.1497 7.9404 21.1297C7.64852 21.1123 7.37889 20.968 7.20249 20.7348C7 20.4671 7 19.9815 7 19.0104V4.98963Z" fill="black"/>
</svg>
