<svg width="24" height="24" viewBox="0 0 24 24" fill="none" xmlns="http://www.w3.org/2000/svg">
<path d="M17.4 7.5V5.88C17.4 4.87191 17.4 4.36786 17.2038 3.98282C17.0312 3.64413 16.7559 3.36876 16.4172 3.19619C16.0321 3 15.5281 3 14.52 3H9.48C8.47191 3 7.96786 3 7.58282 3.19619C7.24413 3.36876 6.96876 3.64413 6.79619 3.98282C6.6 4.36786 6.6 4.87191 6.6 5.88V7.5M6.6 17.4C5.76303 17.4 5.34454 17.4 5.00119 17.308C4.06944 17.0583 3.34166 16.3306 3.092 15.3988C3 15.0555 3 14.637 3 13.8V11.82C3 10.3079 3 9.55179 3.29428 8.97423C3.55314 8.46619 3.96619 8.05314 4.47423 7.79428C5.05179 7.5 5.80786 7.5 7.32 7.5H16.68C18.1921 7.5 18.9482 7.5 19.5258 7.79428C20.0338 8.05314 20.4469 8.46619 20.7057 8.97423C21 9.55179 21 10.3079 21 11.82V13.8C21 14.637 21 15.0555 20.908 15.3988C20.6583 16.3306 19.9306 17.0583 18.9988 17.308C18.6555 17.4 18.237 17.4 17.4 17.4M14.7 10.65H17.4M9.48 21H14.52C15.5281 21 16.0321 21 16.4172 20.8038C16.7559 20.6312 17.0312 20.3559 17.2038 20.0172C17.4 19.6321 17.4 19.1281 17.4 18.12V16.68C17.4 15.6719 17.4 15.1679 17.2038 14.7828C17.0312 14.4441 16.7559 14.1688 16.4172 13.9962C16.0321 13.8 15.5281 13.8 14.52 13.8H9.48C8.47191 13.8 7.96786 13.8 7.58282 13.9962C7.24413 14.1688 6.96876 14.4441 6.79619 14.7828C6.6 15.1679 6.6 15.6719 6.6 16.68V18.12C6.6 19.1281 6.6 19.6321 6.79619 20.0172C6.96876 20.3559 7.24413 20.6312 7.58282 20.8038C7.96786 21 8.47191 21 9.48 21Z" stroke="black" stroke-width="1.5" stroke-linecap="round" stroke-linejoin="round"/>
</svg>
